<?xml version="1.0" encoding="UTF-8" standalone="no"?>
<!DOCTYPE svg PUBLIC "-//W3C//DTD SVG 1.1//EN" "http://www.w3.org/Graphics/SVG/1.1/DTD/svg11.dtd">
<svg width="100%" height="100%" viewBox="0 0 480 480" version="1.1" xmlns="http://www.w3.org/2000/svg" xmlns:xlink="http://www.w3.org/1999/xlink" xml:space="preserve" xmlns:serif="http://www.serif.com/" style="fill-rule:evenodd;clip-rule:evenodd;stroke-linejoin:round;stroke-miterlimit:2;">
    <path d="M320,199.758L320,135.758C320,131.852 322.824,128.516 326.68,127.871L374.68,119.871C377,119.48 379.371,120.133 381.168,121.652C382.965,123.172 384,125.406 384,127.758L384,199.887C415.699,201.742 440.352,228.172 440,259.926L440,415.758L448,415.758C465.672,415.758 480,430.086 480,447.758C480,465.43 465.672,479.758 448,479.758L32,479.758C14.328,479.758 0,465.43 0,447.758C0,430.086 14.328,415.758 32,415.758L40,415.758L40,259.926C39.648,228.172 64.301,201.742 96,199.887L96,135.758C96,131.852 98.824,128.516 102.68,127.871L150.68,119.871C153,119.48 155.371,120.133 157.168,121.652C158.965,123.172 160,125.406 160,127.758L160,199.758L208,199.758L208,135.758C208,131.852 210.824,128.516 214.68,127.871L262.68,119.871C265,119.48 267.371,120.133 269.168,121.652C270.965,123.172 272,125.406 272,127.758L272,199.758L320,199.758ZM448,463.758C456.836,463.758 464,456.594 464,447.758C464,438.922 456.836,431.758 448,431.758L32,431.758C23.164,431.758 16,438.922 16,447.758C16,456.594 23.164,463.758 32,463.758L448,463.758ZM424,415.758L424,259.926C424.012,257.008 423.742,254.098 423.199,251.23C416.926,258.137 412.09,266.227 408.977,275.023C401.297,292.246 392.566,311.758 371.375,311.758C350.848,311.758 339.328,292.703 329.168,275.902C320.406,261.43 312.145,247.758 300.641,247.758C290.551,247.758 285.215,258.055 277.602,275.023C269.922,292.246 261.168,311.758 240,311.758C218.832,311.758 210.098,292.246 202.391,275.031C194.793,258.063 189.457,247.758 179.375,247.758C167.887,247.758 159.648,261.43 150.848,275.902C140.641,292.711 129.145,311.758 108.641,311.758C87.465,311.758 78.727,292.246 71.016,275.023C67.91,266.23 63.094,258.145 56.84,251.23C56.285,254.094 56.004,257.008 56,259.926L56,415.758L424,415.758ZM98.527,215.758L381.473,215.758C396.055,215.863 409.543,223.5 417.137,235.949C406.16,242.543 399.953,256.039 394.383,268.492C386.801,285.461 381.473,295.758 371.375,295.758C359.871,295.758 351.609,282.086 342.848,267.613C332.688,250.813 321.16,231.758 300.641,231.758C279.457,231.758 270.719,251.27 263.039,268.492C255.434,285.453 250.098,295.758 240,295.758C229.902,295.758 224.594,285.453 216.992,268.492C209.289,251.27 200.543,231.758 179.375,231.758C158.871,231.758 147.375,250.805 137.168,267.605C128.398,282.086 120.129,295.758 108.641,295.758C98.551,295.758 93.215,285.453 85.625,268.492C80.023,256.039 73.855,242.504 62.895,235.902C70.492,223.48 83.969,215.863 98.527,215.758ZM368,137.207C327.171,144.005 336,158.367 336,199.758L368,199.758L368,137.207ZM256,137.207C215.171,144.005 224,158.367 224,199.758L256,199.758L256,137.207ZM144,137.207C103.171,144.005 112,158.367 112,199.758L144,199.758L144,137.207ZM240,111.758C261.184,112.578 279.059,96.137 280,74.957C280,57.637 252.336,12.414 246.793,3.527C245.234,1.316 242.695,0 239.992,0C237.285,0 234.75,1.316 233.191,3.527C227.664,12.414 200,57.637 200,74.957C200.941,96.137 218.816,112.578 240,111.758ZM352,111.758C373.184,112.578 391.059,96.137 392,74.957C392,57.637 364.336,12.414 358.793,3.527C357.234,1.316 354.695,0 351.992,0C349.285,0 346.75,1.316 345.191,3.527C339.664,12.414 312,57.637 312,74.957C312.941,96.137 330.816,112.578 352,111.758ZM128,111.758C149.184,112.578 167.059,96.137 168,74.957C168,57.637 140.336,12.414 134.793,3.527C133.234,1.316 130.695,0 127.992,0C125.285,0 122.75,1.316 121.191,3.527C115.664,12.414 88,57.637 88,74.957C88.941,96.137 106.816,112.578 128,111.758ZM240,23.246C251.543,42.949 264,67.156 264,74.957C263.039,87.293 252.344,96.563 240,95.758C227.656,96.563 216.961,87.293 216,74.957C216,67.156 228.457,42.957 240,23.246ZM128,23.246C139.543,42.949 152,67.156 152,74.957C151.039,87.293 140.344,96.563 128,95.758C115.656,96.563 104.961,87.293 104,74.957C104,67.156 116.457,42.957 128,23.246ZM352,23.246C363.543,42.949 376,67.156 376,74.957C374.281,86.891 364.055,95.746 352,95.746C339.945,95.746 329.719,86.891 328,74.957C328,67.156 340.457,42.957 352,23.246Z" style="fill-rule:nonzero;"/>
</svg>
