<?xml version="1.0" encoding="UTF-8" standalone="no"?>
<!DOCTYPE svg PUBLIC "-//W3C//DTD SVG 1.1//EN" "http://www.w3.org/Graphics/SVG/1.1/DTD/svg11.dtd">
<svg width="100%" height="100%" viewBox="0 0 512 512" version="1.1" xmlns="http://www.w3.org/2000/svg" xmlns:xlink="http://www.w3.org/1999/xlink" xml:space="preserve" xmlns:serif="http://www.serif.com/" style="fill-rule:evenodd;clip-rule:evenodd;stroke-linejoin:round;stroke-miterlimit:2;">
    <path d="M443.761,33.707C481.388,33.707 512,64.319 512,101.946L512,410.053C512,447.68 481.388,478.292 443.761,478.292L68.24,478.292C30.612,478.292 0,447.68 0,410.053L0,101.946C0,64.319 30.612,33.707 68.24,33.707L443.761,33.707ZM443.761,448.293C464.846,448.293 482,431.139 482,410.054L482,101.946C482,80.861 464.846,63.707 443.761,63.707L68.24,63.707C47.154,63.707 30,80.861 30,101.946L30,410.054C30,431.139 47.155,448.293 68.24,448.293L443.761,448.293ZM401.5,162.927L401.5,108.707C401.5,100.423 394.784,93.707 386.5,93.707C378.216,93.707 371.5,100.423 371.5,108.707L371.5,162.927C353.714,169.144 340.917,186.082 340.917,205.962C340.917,225.842 353.714,242.78 371.5,248.998L371.5,403.293C371.5,411.577 378.216,418.293 386.5,418.293C394.784,418.293 401.5,411.577 401.5,403.293L401.5,248.998C419.286,242.781 432.083,225.843 432.083,205.962C432.083,186.081 419.286,169.144 401.5,162.927ZM271,262.992L271,108.707C271,100.423 264.284,93.707 256,93.707C247.716,93.707 241,100.423 241,108.707L241,262.992C223.214,269.209 210.417,286.147 210.417,306.028C210.417,325.909 223.215,342.846 241,349.064L241,403.293C241,411.577 247.716,418.293 256,418.293C264.284,418.293 271,411.577 271,403.293L271,349.064C288.786,342.847 301.583,325.909 301.583,306.028C301.583,286.147 288.786,269.21 271,262.992ZM140.5,162.927L140.5,108.707C140.5,100.423 133.784,93.707 125.5,93.707C117.216,93.707 110.5,100.423 110.5,108.707L110.5,162.927C92.714,169.144 79.917,186.082 79.917,205.962C79.917,225.842 92.715,242.78 110.5,248.998L110.5,403.293C110.5,411.577 117.216,418.293 125.5,418.293C133.784,418.293 140.5,411.577 140.5,403.293L140.5,248.998C158.286,242.781 171.083,225.843 171.083,205.962C171.083,186.081 158.286,169.144 140.5,162.927ZM256.014,321.611C256.009,321.611 256.004,321.61 256,321.61C255.996,321.61 255.99,321.611 255.986,321.611C247.4,321.603 240.417,314.616 240.417,306.028C240.417,297.435 247.408,290.445 256,290.445C264.592,290.445 271.583,297.436 271.583,306.028C271.583,314.616 264.601,321.603 256.014,321.611ZM386.5,221.545C377.907,221.545 370.917,214.554 370.917,205.962C370.917,197.373 377.902,190.385 386.49,190.379L386.51,190.379C395.098,190.384 402.083,197.372 402.083,205.962C402.083,214.555 395.093,221.545 386.5,221.545ZM125.5,221.545C116.907,221.545 109.917,214.554 109.917,205.962C109.917,197.373 116.903,190.385 125.491,190.379L125.511,190.379C134.099,190.384 141.085,197.372 141.085,205.962C141.083,214.555 134.093,221.545 125.5,221.545Z" style="fill-rule:nonzero;"/>
</svg>
