<?xml version="1.0" encoding="UTF-8" standalone="no"?>
<!DOCTYPE svg PUBLIC "-//W3C//DTD SVG 1.1//EN" "http://www.w3.org/Graphics/SVG/1.1/DTD/svg11.dtd">
<svg width="100%" height="100%" viewBox="0 0 306 306" version="1.1" xmlns="http://www.w3.org/2000/svg" xmlns:xlink="http://www.w3.org/1999/xlink" xml:space="preserve" xmlns:serif="http://www.serif.com/" style="fill-rule:evenodd;clip-rule:evenodd;stroke-linejoin:round;stroke-miterlimit:2;">
    <g>
        <g>
            <path d="M24.818,260.333C0.359,260.333 24.421,235.515 24.421,235.515L86.78,166.983C92.845,160.32 104.549,150.203 111.392,155.784C118.234,161.364 127.372,172.672 133.736,179.052L146.632,191.959C153.545,198.078 158.864,191.959 158.864,191.959L172.059,178.96C178.477,172.634 187.669,161.598 194.522,156.464C201.375,151.33 213.031,161.093 219.079,167.772L281.073,236.272C305.543,260.334 281.47,260.334 281.47,260.334L24.818,260.334L24.818,260.333ZM35.403,203.951C29.338,210.619 20.478,222.215 14.49,228.949C7.729,236.548 0,242.318 0,229.009L0.294,95.311C0.316,86.298 0.066,69.111 6.223,72.195C8.513,73.343 11.646,75.73 15.899,79.989L66.363,121.277C73.336,126.983 83.164,133.966 86.379,138.617C88.408,141.549 89.338,144.959 86.401,147.907L35.403,203.951ZM171.423,156.452C164.456,162.168 156.884,170.278 153.017,170.289C149.15,170.294 141.437,162.37 134.437,156.691L24.634,67.621C17.634,61.948 5.576,50.521 11.569,47.458C15.898,45.244 23.464,45.282 23.464,45.282L281.493,45.282C304.723,45.282 292.91,56.753 292.91,56.753L171.423,156.452ZM291.11,228.949C285.111,222.221 276.245,210.619 270.186,203.951L219.217,147.901C216.264,144.953 217.188,141.543 219.217,138.611C222.431,133.961 232.265,126.982 239.244,121.277L277.089,90.318C284.062,84.612 293.232,75.279 299.384,72.195C305.536,69.111 305.269,86.304 305.291,95.311L305.617,229.009C305.621,242.318 297.881,236.548 291.11,228.949Z" style="fill:rgb(255,200,20);fill-rule:nonzero;"/>
        </g>
    </g>
</svg>
