<?xml version="1.0" encoding="UTF-8" standalone="no"?>
<!DOCTYPE svg PUBLIC "-//W3C//DTD SVG 1.1//EN" "http://www.w3.org/Graphics/SVG/1.1/DTD/svg11.dtd">
<svg width="100%" height="100%" viewBox="0 0 512 512" version="1.1" xmlns="http://www.w3.org/2000/svg" xmlns:xlink="http://www.w3.org/1999/xlink" xml:space="preserve" xmlns:serif="http://www.serif.com/" style="fill-rule:evenodd;clip-rule:evenodd;stroke-linejoin:round;stroke-miterlimit:2;">
    <g transform="matrix(1,0,0,1,-4.33589e-06,-0.00062478)">
        <g id="XMLID_1455_">
            <g>
                <g id="XMLID_224_">
                    <path id="XMLID_406_" d="M509.072,83.209L501.19,75.327L502.393,74.125C504.267,72.25 505.321,69.707 505.321,67.057C505.321,64.406 504.267,61.863 502.393,59.988L452.098,9.694C448.193,5.791 441.866,5.791 437.96,9.694L436.759,10.896L428.877,3.014C424.973,-0.89 418.646,-0.89 414.739,3.014C410.836,6.917 410.836,13.247 414.739,17.15L422.621,25.032L406.655,40.999L398.773,33.117C394.868,29.213 388.541,29.213 384.635,33.117C380.732,37.02 380.732,43.35 384.635,47.253L392.517,55.135L376.553,71.102L368.672,63.22C364.768,59.317 358.441,59.317 354.534,63.22C350.631,67.124 350.631,73.453 354.534,77.356L366.066,88.889L366.066,93.963L260.561,199.468L256.78,195.687C240.522,179.43 217.354,172.414 194.814,176.917C172.269,181.42 153.406,197.212 144.646,218.463C135.816,239.878 116.427,255.778 93.065,260.301C70.272,264.715 49.712,275.559 33.609,291.663C10.515,314.756 -1.376,346.218 0.127,380.253C1.615,413.955 16.098,446.177 40.904,470.984C67.471,497.551 102.526,511.916 137.243,511.915C151.275,511.915 165.255,509.567 178.593,504.731C183.782,502.849 186.464,497.116 184.582,491.926C182.699,486.737 176.969,484.053 171.776,485.936C132.7,500.108 86.879,488.688 55.04,456.848C33.776,435.584 21.366,408.069 20.099,379.372C18.847,351.009 28.664,324.88 47.744,305.8C61.016,292.528 78.003,283.581 96.865,279.93C126.848,274.124 151.726,253.737 163.126,226.089C169.429,210.802 182.514,199.763 198.729,196.523C214.948,193.283 230.95,198.133 242.642,209.824L246.424,213.606L211.981,248.048C198.372,248.146 185.59,253.485 175.955,263.119C166.32,272.753 160.981,285.535 160.884,299.146L113.253,346.777L107.747,341.271C103.843,337.368 97.516,337.368 93.61,341.271C89.707,345.175 89.707,351.504 93.61,355.409L156.478,418.277C158.43,420.229 160.988,421.205 163.546,421.205C166.104,421.205 168.662,420.229 170.615,418.277C174.518,414.374 174.518,408.044 170.615,404.14L165.11,398.635L212.741,351.005C226.351,350.907 239.133,345.568 248.767,335.933C258.401,326.299 263.74,313.517 263.838,299.907L298.28,265.464L302.062,269.246C313.754,280.938 318.602,296.944 315.364,313.158C312.125,329.374 301.087,342.459 285.8,348.761C258.149,360.162 237.764,385.039 231.957,415.023C230.979,420.079 229.605,425.061 227.876,429.832C225.995,435.022 228.677,440.755 233.867,442.636C239.064,444.52 244.79,441.835 246.672,436.645C248.756,430.895 250.409,424.899 251.585,418.823C256.109,395.461 272.006,376.074 293.42,367.244C314.675,358.481 330.465,339.62 334.968,317.075C339.472,294.53 332.455,271.365 316.199,255.109L312.418,251.328L417.723,146.022L423.198,146.022L434.729,157.554C436.682,159.506 439.24,160.482 441.798,160.482C444.356,160.482 446.914,159.505 448.866,157.554C452.769,153.65 452.769,147.321 448.866,143.417L440.984,135.536L456.951,119.569L464.833,127.451C466.785,129.403 469.343,130.379 471.901,130.379C474.459,130.379 477.017,129.402 478.969,127.451C482.872,123.547 482.872,117.218 478.969,113.314L471.087,105.432L487.053,89.467L494.935,97.349C496.887,99.301 499.445,100.276 502.003,100.276C504.561,100.276 507.119,99.3 509.071,97.349C512.977,93.442 512.977,87.114 509.072,83.209ZM481.187,67.057L422.216,126.027L413.445,126.027L386.06,98.642L386.06,89.87L445.03,30.899L481.187,67.057ZM336.002,199.468L312.419,175.885L336.003,152.3L359.587,175.884L336.002,199.468ZM298.281,190.022L321.865,213.606L298.281,237.189L274.698,213.606L298.281,190.022ZM248.769,263.118C244.693,259.043 240.05,255.746 235.024,253.278L260.56,227.742L284.144,251.326L258.608,276.862C256.14,271.837 252.844,267.194 248.769,263.118ZM127.392,360.912L166.116,322.187C168.584,327.213 171.881,331.856 175.957,335.931C180.032,340.007 184.675,343.304 189.701,345.772L150.976,384.496L127.392,360.912ZM234.632,321.794C228.685,327.743 220.776,331.019 212.363,331.019C203.951,331.019 196.042,327.744 190.094,321.794C184.145,315.845 180.869,307.937 180.869,299.524C180.869,291.111 184.144,283.202 190.094,277.254C196.042,271.305 203.951,268.029 212.363,268.029C220.776,268.029 228.685,271.305 234.632,277.255C240.581,283.203 243.858,291.112 243.858,299.524C243.857,307.937 240.581,315.845 234.632,321.794ZM373.723,161.747L350.139,138.163L373.723,114.58L397.306,138.163L373.723,161.747Z" style="fill:rgb(255,215,84);fill-rule:nonzero;"/>
                    <path id="XMLID_479_" d="M213.158,461.214C210.519,461.214 207.95,462.284 206.081,464.143C204.222,466.002 203.162,468.581 203.162,471.21C203.162,473.839 204.222,476.418 206.081,478.277C207.95,480.137 210.529,481.206 213.158,481.206C215.787,481.206 218.366,480.137 220.225,478.277C222.083,476.418 223.154,473.839 223.154,471.21C223.154,468.581 222.084,466.002 220.225,464.143C218.366,462.284 215.787,461.214 213.158,461.214Z" style="fill:rgb(255,215,84);fill-rule:nonzero;"/>
                </g>
            </g>
        </g>
    </g>
</svg>
