<?xml version="1.0" encoding="UTF-8" standalone="no"?>
<!DOCTYPE svg PUBLIC "-//W3C//DTD SVG 1.1//EN" "http://www.w3.org/Graphics/SVG/1.1/DTD/svg11.dtd">
<svg width="100%" height="100%" viewBox="0 0 512 512" version="1.1" xmlns="http://www.w3.org/2000/svg" xmlns:xlink="http://www.w3.org/1999/xlink" xml:space="preserve" xmlns:serif="http://www.serif.com/" style="fill-rule:evenodd;clip-rule:evenodd;stroke-linejoin:round;stroke-miterlimit:2;">
    <g>
        <path d="M376,91L136,91C111.188,91 91,111.188 91,136L91,376C91,400.813 111.188,421 136,421L376,421C400.813,421 421,400.813 421,376L421,136C421,111.188 400.813,91 376,91ZM256,361C198.109,361 151,313.891 151,256C151,198.109 198.109,151 256,151C313.891,151 361,198.109 361,256C361,313.891 313.891,361 256,361ZM361,181C344.461,181 331,167.539 331,151C331,134.461 344.461,121 361,121C377.539,121 391,134.461 391,151C391,167.539 377.539,181 361,181Z" style="fill:rgb(255,200,20);fill-rule:nonzero;"/>
        <path d="M256,181C214.648,181 181,214.648 181,256C181,297.352 214.648,331 256,331C297.352,331 331,297.352 331,256C331,214.648 297.352,181 256,181Z" style="fill:rgb(255,200,20);fill-rule:nonzero;"/>
        <path d="M436,0L76,0C34.648,0 0,34.648 0,76L0,436C0,477.352 34.648,512 76,512L436,512C477.352,512 512,477.352 512,436L512,76C512,34.648 477.352,0 436,0ZM451,376C451,417.352 417.352,451 376,451L136,451C94.648,451 61,417.352 61,376L61,136C61,94.648 94.648,61 136,61L376,61C417.352,61 451,94.648 451,136L451,376Z" style="fill:rgb(255,200,20);fill-rule:nonzero;"/>
    </g>
</svg>
