<?xml version="1.0" encoding="UTF-8" standalone="no"?>
<!DOCTYPE svg PUBLIC "-//W3C//DTD SVG 1.1//EN" "http://www.w3.org/Graphics/SVG/1.1/DTD/svg11.dtd">
<svg width="100%" height="100%" viewBox="0 0 61 61" version="1.1" xmlns="http://www.w3.org/2000/svg" xmlns:xlink="http://www.w3.org/1999/xlink" xml:space="preserve" xmlns:serif="http://www.serif.com/" style="fill-rule:evenodd;clip-rule:evenodd;stroke-linejoin:round;stroke-miterlimit:2;">
    <g>
        <g transform="matrix(0.117188,0,0,0.117188,0,0)">
            <path d="M376,91L136,91C111.188,91 91,111.188 91,136L91,376C91,400.813 111.188,421 136,421L376,421C400.813,421 421,400.813 421,376L421,136C421,111.188 400.813,91 376,91ZM256,361C198.109,361 151,313.891 151,256C151,198.109 198.109,151 256,151C313.891,151 361,198.109 361,256C361,313.891 313.891,361 256,361ZM361,181C344.461,181 331,167.539 331,151C331,134.461 344.461,121 361,121C377.539,121 391,134.461 391,151C391,167.539 377.539,181 361,181Z" style="fill-rule:nonzero;"/>
        </g>
        <g transform="matrix(0.117188,0,0,0.117188,0,0)">
            <path d="M256,181C214.648,181 181,214.648 181,256C181,297.352 214.648,331 256,331C297.352,331 331,297.352 331,256C331,214.648 297.352,181 256,181Z" style="fill-rule:nonzero;"/>
        </g>
        <g transform="matrix(1,0,0,1,-226,-226)">
            <path d="M277.094,226C281.94,226 286,230.06 286,234.906L286,277.094C286,281.94 281.94,286 277.094,286L234.906,286C230.06,286 226,281.94 226,277.094L226,234.906C226,230.06 230.06,226 234.906,226L277.094,226ZM270.063,278.852C274.909,278.852 278.852,274.909 278.852,270.063L278.852,241.938C278.852,237.092 274.909,233.148 270.063,233.148L241.938,233.148C237.092,233.148 233.148,237.092 233.148,241.938L233.148,270.063C233.148,274.909 237.092,278.852 241.938,278.852L270.063,278.852Z" style="fill-rule:nonzero;"/>
        </g>
    </g>
</svg>
