<?xml version="1.0" encoding="UTF-8" standalone="no"?>
<!DOCTYPE svg PUBLIC "-//W3C//DTD SVG 1.1//EN" "http://www.w3.org/Graphics/SVG/1.1/DTD/svg11.dtd">
<svg width="100%" height="100%" viewBox="0 0 512 512" version="1.1" xmlns="http://www.w3.org/2000/svg" xmlns:xlink="http://www.w3.org/1999/xlink" xml:space="preserve" xmlns:serif="http://www.serif.com/" style="fill-rule:evenodd;clip-rule:evenodd;stroke-linejoin:round;stroke-miterlimit:2;">
    <path d="M241,482L241,414.35C151.501,406.716 81,331.442 81,240C81,231.716 87.716,225 96,225C104.284,225 111,231.716 111,240C111,319.953 176.047,385 256,385C335.953,385 401,319.953 401,240C401,231.716 407.716,225 416,225C424.284,225 431,231.716 431,240C431,331.442 360.499,406.716 271,414.35L271,482L352,482C360.284,482 367,488.716 367,497C367,505.284 360.284,512 352,512L160,512C151.716,512 145,505.284 145,497C145,488.716 151.716,482 160,482L241,482ZM262,0C319.897,0 367,47.551 367,106L367,246C367,303.897 319.897,351 262,351L250,351C192.103,351 145,303.897 145,246L145,105.808C145.104,47.448 192.167,0 250,0L262,0ZM336.456,97C332.047,59.322 300.348,30 262,30L250,30C211.652,30 179.953,59.322 175.544,97L200,97C208.284,97 215,103.716 215,112C215,120.284 208.284,127 200,127L175,127L175,161L216,161C224.284,161 231,167.716 231,176C231,184.284 224.284,191 216,191L175,191L175,225L200,225C208.284,225 215,231.716 215,240C215,248.284 208.284,255 200,255L175.559,255C180.022,292.125 211.693,321 250,321L262,321C300.308,321 331.978,292.125 336.441,255L312,255C303.716,255 297,248.284 297,240C297,231.716 303.716,225 312,225L337,225L337,191L296,191C287.716,191 281,184.284 281,176C281,167.716 287.716,161 296,161L337,161L337,127L312,127C303.716,127 297,120.284 297,112C297,103.716 303.716,97 312,97L336.456,97Z" style="fill-rule:nonzero;"/>
</svg>
