<?xml version="1.0" encoding="UTF-8" standalone="no"?>
<!DOCTYPE svg PUBLIC "-//W3C//DTD SVG 1.1//EN" "http://www.w3.org/Graphics/SVG/1.1/DTD/svg11.dtd">
<svg width="100%" height="100%" viewBox="0 0 512 512" version="1.1" xmlns="http://www.w3.org/2000/svg" xmlns:xlink="http://www.w3.org/1999/xlink" xml:space="preserve" xmlns:serif="http://www.serif.com/" style="fill-rule:evenodd;clip-rule:evenodd;stroke-linejoin:round;stroke-miterlimit:2;">
    <g>
        <path d="M250,351L262,351C319.897,351 367,303.897 367,246L367,106C367,47.551 319.897,0 262,0L250,0C192.167,0 145.104,47.448 145,105.808L145,246C145,303.897 192.103,351 250,351ZM250,30L262,30C300.348,30 332.047,59.322 336.456,97L312,97C303.716,97 297,103.716 297,112C297,120.284 303.716,127 312,127L337,127L337,161L296,161C287.716,161 281,167.716 281,176C281,184.284 287.716,191 296,191L337,191L337,225L312,225C303.716,225 297,231.716 297,240C297,248.284 303.716,255 312,255L336.441,255C331.978,292.125 300.308,321 262,321L250,321C211.693,321 180.022,292.125 175.559,255L200,255C208.284,255 215,248.284 215,240C215,231.716 208.284,225 200,225L175,225L175,191L216,191C224.284,191 231,184.284 231,176C231,167.716 224.284,161 216,161L175,161L175,127L200,127C208.284,127 215,120.284 215,112C215,103.716 208.284,97 200,97L175.544,97C179.953,59.322 211.652,30 250,30Z" style="fill:rgb(255,215,84);fill-rule:nonzero;"/>
        <path d="M431,240C431,231.716 424.284,225 416,225C407.716,225 401,231.716 401,240C401,319.953 335.953,385 256,385C176.047,385 111,319.953 111,240C111,231.716 104.284,225 96,225C87.716,225 81,231.716 81,240C81,331.442 151.501,406.716 241,414.35L241,482L160,482C151.716,482 145,488.716 145,497C145,505.284 151.716,512 160,512L352,512C360.284,512 367,505.284 367,497C367,488.716 360.284,482 352,482L271,482L271,414.35C360.499,406.716 431,331.442 431,240Z" style="fill:rgb(255,215,84);fill-rule:nonzero;"/>
    </g>
</svg>
