<svg xmlns="http://www.w3.org/2000/svg" viewBox="0 0 386.05 41.64"><defs><style>.cls-1{fill:#fff;}.cls-2{fill:#ffa300;}.cls-3{fill:#fabe45;}</style></defs><title>Asset 2</title><g id="Layer_2" data-name="Layer 2"><g id="Layer_3" data-name="Layer 3"><path class="cls-1" d="M92.67,2.65a42.5,42.5,0,0,1,8-.7c4.36,0,7.17.75,9.27,2.46a7.05,7.05,0,0,1,2.81,6c0,3.26-2.16,6.12-5.72,7.42v.1c3.21.81,7,3.46,7,8.48a9.12,9.12,0,0,1-2.86,6.77c-2.35,2.15-6.16,3.15-11.68,3.15a51.21,51.21,0,0,1-6.77-.4ZM97,16.49h4c4.61,0,7.32-2.41,7.32-5.67,0-4-3-5.51-7.42-5.51a18.9,18.9,0,0,0-3.87.3Zm0,16.19a23.25,23.25,0,0,0,3.66.21c4.52,0,8.68-1.66,8.68-6.57,0-4.62-4-6.52-8.72-6.52H97Z"/><path class="cls-1" d="M124.21,2.2v20c0,7.57,3.36,10.77,7.87,10.77,5,0,8.23-3.3,8.23-10.77V2.2h4.41V21.9c0,10.38-5.47,14.65-12.79,14.65-6.92,0-12.13-4-12.13-14.45V2.2Z"/><path class="cls-1" d="M175.91,34.89a21.76,21.76,0,0,1-8.93,1.6c-9.52,0-16.7-6-16.7-17.09,0-10.58,7.18-17.75,17.65-17.75a18.2,18.2,0,0,1,8,1.5L174.9,6.71a15.91,15.91,0,0,0-6.82-1.4c-7.92,0-13.18,5.06-13.18,13.94,0,8.27,4.76,13.58,13,13.58a17.48,17.48,0,0,0,7.12-1.4Z"/><path class="cls-1" d="M187,25.36,183.53,36H179L190.5,2.2h5.26L207.29,36h-4.66L199,25.36ZM198.12,22l-3.31-9.72c-.75-2.21-1.25-4.21-1.76-6.17H193c-.5,2-1,4.06-1.7,6.12L187.94,22Z"/><path class="cls-1" d="M222.29,30.68a15.46,15.46,0,0,0,7.82,2.21c4.46,0,7.07-2.36,7.07-5.77,0-3.16-1.81-5-6.37-6.72-5.51-2-8.92-4.81-8.92-9.58,0-5.26,4.36-9.17,10.93-9.17a15.4,15.4,0,0,1,7.47,1.65l-1.21,3.56a13.43,13.43,0,0,0-6.41-1.6c-4.62,0-6.37,2.76-6.37,5.06,0,3.16,2.06,4.72,6.72,6.52,5.71,2.21,8.62,5,8.62,9.93,0,5.21-3.86,9.72-11.83,9.72a17.54,17.54,0,0,1-8.63-2.15Z"/><path class="cls-1" d="M254,5.91H243.75V2.2h25V5.91H258.44V36H254Z"/><path class="cls-1" d="M276.89,2.2v20c0,7.57,3.36,10.77,7.87,10.77,5,0,8.23-3.3,8.23-10.77V2.2h4.41V21.9c0,10.38-5.47,14.65-12.79,14.65-6.92,0-12.13-4-12.13-14.45V2.2Z"/><path class="cls-1" d="M305,2.65a62.74,62.74,0,0,1,9.28-.7C320.52,2,325,3.4,327.94,6.16s4.76,6.67,4.76,12.13-1.71,10-4.86,13.14-8.38,4.86-14.95,4.86a70.6,70.6,0,0,1-7.92-.4Zm4.36,29.88a27.74,27.74,0,0,0,4.42.25c9.32,0,14.39-5.21,14.39-14.34.05-8-4.47-13-13.69-13a24.94,24.94,0,0,0-5.12.45Z"/><path class="cls-1" d="M342.73,2.2V36h-4.37V2.2Z"/><path class="cls-2" d="M23.87,40.84l2.32-2a2.38,2.38,0,0,1,1.57-.56l2.54.15c8,0,11.42-6.06,11.42-9.81V13.93c0-3.76-3.38-9.81-11.42-9.81l-2.54.15a2.34,2.34,0,0,1-1.57-.57l-2.32-2a6.48,6.48,0,0,0-3.13-.8H7.79C1.77,1.09.07,8.44.07,8.44c-.2,1,0,2,1,2l25.44.45a2.15,2.15,0,0,0,2.18-2.15V7.92h.8c5.29.12,8.86,3.69,8.5,9v8.69c.36,5.33-3.21,8.9-8.5,9h-.8v-.84a2.15,2.15,0,0,0-2.18-2.15L1.1,32.09c-1,0-1.23,1-1,2,0,0,1.7,7.35,7.72,7.52h13A6.59,6.59,0,0,0,23.87,40.84Z"/><line class="cls-2" x1="24.58" y1="16.47" x2="4.21" y2="16.47"/><path class="cls-2" d="M24.58,17.47H4.21a1,1,0,0,1,0-2H24.58a1,1,0,1,1,0,2Z"/><line class="cls-2" x1="19.47" y1="19.73" x2="9.33" y2="19.73"/><path class="cls-2" d="M19.47,20.73H9.33a1,1,0,0,1,0-2H19.47a1,1,0,0,1,0,2Z"/><line class="cls-2" x1="19.47" y1="13.03" x2="9.33" y2="13.03"/><path class="cls-2" d="M19.47,14H9.33a1,1,0,0,1,0-2H19.47a1,1,0,0,1,0,2Z"/><line class="cls-2" x1="24.58" y1="26.26" x2="4.21" y2="26.26"/><path class="cls-2" d="M24.58,27.26H4.21a1,1,0,0,1,0-2H24.58a1,1,0,0,1,0,2Z"/><line class="cls-2" x1="19.47" y1="29.52" x2="9.33" y2="29.52"/><path class="cls-2" d="M19.47,30.52H9.33a1,1,0,0,1,0-2H19.47a1,1,0,0,1,0,2Z"/><line class="cls-2" x1="19.47" y1="22.82" x2="9.33" y2="22.82"/><path class="cls-2" d="M19.47,23.82H9.33a1,1,0,1,1,0-2H19.47a1,1,0,0,1,0,2Z"/><path class="cls-2" d="M61.44,40.84l-2.32-2a2.38,2.38,0,0,0-1.57-.56L55,38.44c-8,0-11.42-6.06-11.42-9.81V13.93C43.59,10.17,47,4.12,55,4.12l2.54.15a2.34,2.34,0,0,0,1.57-.57l2.32-2a6.48,6.48,0,0,1,3.13-.8h13c6,.17,7.72,7.52,7.72,7.52.2,1,0,2-1,2l-25.45.45a2.15,2.15,0,0,1-2.18-2.15V7.92H55.8c-5.3.12-8.87,3.69-8.5,9v8.69c-.37,5.33,3.2,8.9,8.5,9h.79v-.84a2.15,2.15,0,0,1,2.18-2.15l25.45.45c1,0,1.22,1,1,2,0,0-1.7,7.35-7.72,7.52h-13A6.59,6.59,0,0,1,61.44,40.84Z"/><line class="cls-2" x1="81.58" y1="16.47" x2="61.21" y2="16.47"/><path class="cls-2" d="M81.58,17.47H61.21a1,1,0,0,1,0-2H81.58a1,1,0,1,1,0,2Z"/><line class="cls-2" x1="76.47" y1="19.73" x2="66.33" y2="19.73"/><path class="cls-2" d="M76.47,20.73H66.33a1,1,0,0,1,0-2H76.47a1,1,0,0,1,0,2Z"/><line class="cls-2" x1="76.47" y1="13.03" x2="66.33" y2="13.03"/><path class="cls-2" d="M76.47,14H66.33a1,1,0,0,1,0-2H76.47a1,1,0,0,1,0,2Z"/><line class="cls-2" x1="81.58" y1="26.26" x2="61.21" y2="26.26"/><path class="cls-2" d="M81.58,27.26H61.21a1,1,0,0,1,0-2H81.58a1,1,0,0,1,0,2Z"/><line class="cls-2" x1="76.47" y1="29.52" x2="66.33" y2="29.52"/><path class="cls-2" d="M76.47,30.52H66.33a1,1,0,0,1,0-2H76.47a1,1,0,0,1,0,2Z"/><line class="cls-2" x1="76.47" y1="22.82" x2="66.33" y2="22.82"/><path class="cls-2" d="M76.47,23.82H66.33a1,1,0,0,1,0-2H76.47a1,1,0,0,1,0,2Z"/><line class="cls-3" x1="81.58" y1="16.47" x2="61.21" y2="16.47"/><line class="cls-3" x1="76.47" y1="19.73" x2="66.33" y2="19.73"/><line class="cls-3" x1="76.47" y1="13.03" x2="66.33" y2="13.03"/><line class="cls-3" x1="81.58" y1="26.26" x2="61.21" y2="26.26"/><line class="cls-3" x1="76.47" y1="29.52" x2="66.33" y2="29.52"/><line class="cls-3" x1="76.47" y1="22.82" x2="66.33" y2="22.82"/><path class="cls-2" d="M366.47,0a19.57,19.57,0,1,0,19.58,19.59A19.62,19.62,0,0,0,366.47,0ZM356,34.35c7.14,4.17,14.22,4,21.27-.2A17.38,17.38,0,0,1,356,34.35Zm17.63-4.81a11.2,11.2,0,0,1-14.31,0A12.69,12.69,0,0,0,373.61,29.54ZM360.3,28.46a10.74,10.74,0,0,0,12.32,0C369.59,31.44,363.47,31.45,360.3,28.46Zm14.76,1.84c-4.56,4.2-12.3,4.36-16.67.34C364,34.18,369.58,33.91,375.06,30.3Zm-8.63-2.08a8.65,8.65,0,1,1,8.69-8.61A8.68,8.68,0,0,1,366.43,28.22Zm-7.58-18.08a11.38,11.38,0,0,1,15-.17C368.79,6.77,363.8,6.9,358.85,10.14Zm13.45.54a10.7,10.7,0,0,0-11.64,0C363.66,8,369,8,372.3,10.68Zm-14.57-1.5a12.81,12.81,0,0,1,17-.3C369,5.18,363.34,5.39,357.73,9.18Zm18.4,22.23a14.63,14.63,0,0,1-18.86.35C363.64,35.69,369.92,35.45,376.13,31.41ZM356.6,8.16c3.68-4.87,15-5,19.49-.23C369.6,3.7,363.14,3.79,356.6,8.16Zm19.78,24.72a15.35,15.35,0,0,1-19.84,0Q366.45,39.17,376.38,32.88Zm-20-26.25a15.44,15.44,0,0,1,20.19,0Q366.47.09,356.37,6.63ZM366.51,2c-4,0-7.55,1.45-11,3.3a17.84,17.84,0,0,1,21.93,0C374,3.45,370.48,2,366.51,2Z"/></g></g></svg>