<?xml version="1.0" encoding="utf-8"?>
<!-- Generator: Adobe Illustrator 22.0.0, SVG Export Plug-In . SVG Version: 6.00 Build 0)  -->
<svg version="1.1" id="Layer_1" xmlns="http://www.w3.org/2000/svg" xmlns:xlink="http://www.w3.org/1999/xlink" x="0px" y="0px"
	 viewBox="0 0 404.8 89.6" style="enable-background:new 0 0 404.8 89.6;" xml:space="preserve">
<style type="text/css">
	.st0{fill:#FFFFFF;}
	.st1{fill:#FFCD2A;}
	.st2{fill:none;}
</style>
<title>Asset 5</title>
<path class="st0" d="M0,28.8c3-0.5,6.1-0.7,9.2-0.7c6.2,0,10.6,1.4,13.6,4.2s4.7,6.7,4.7,12.1s-1.7,10-4.8,13.1s-8.3,4.9-14.8,4.9
	c-2.6,0-5.2-0.1-7.8-0.4V28.8H0z M4.3,58.6c1.4,0.2,2.9,0.3,4.4,0.3C18,58.9,23,53.7,23,44.6c0-8-4.4-13-13.6-13
	c-1.7,0-3.4,0.1-5.1,0.5L4.3,58.6z"/>
<path class="st0" d="M30.2,59.5c-0.1-1.7,1.2-3.1,2.8-3.2c0.1,0,0.1,0,0.2,0c1.6,0,2.9,1.3,2.9,2.9c0,0.1,0,0.2,0,0.3
	c0.3,1.6-0.8,3.2-2.4,3.5c-1.6,0.3-3.2-0.8-3.5-2.4C30.1,60.2,30.1,59.8,30.2,59.5z"/>
<path class="st0" d="M65.1,61c-2.8,1.2-5.8,1.7-8.8,1.6c-9.4,0-16.5-6-16.5-17.1c0-10.6,7.1-17.8,17.5-17.8c2.7-0.1,5.5,0.4,8,1.5
	l-1,3.6c-2.1-1-4.4-1.4-6.8-1.4c-7.8,0-13.1,5.1-13.1,13.9c0,8.3,4.7,13.6,12.9,13.6c2.4,0,4.8-0.5,7-1.4L65.1,61z"/>
<path class="st0" d="M69.3,59.5c-0.1-1.7,1.2-3.1,2.8-3.2c0.1,0,0.1,0,0.2,0c1.6,0,2.9,1.3,2.9,2.9c0,0.1,0,0.2,0,0.2
	c0.3,1.6-0.8,3.2-2.5,3.4c-1.6,0.3-3.2-0.8-3.4-2.5C69.3,60.2,69.3,59.8,69.3,59.5z"/>
<path class="st0" d="M91.3,28.8c2.6-0.5,5.3-0.7,7.9-0.7c4.3,0,7.1,0.8,9.2,2.5c1.9,1.4,2.9,3.7,2.8,6c0,3.3-2.1,6.1-5.7,7.4l0,0
	c3.2,0.8,6.9,3.5,6.9,8.5c0,2.6-1,5-2.8,6.8c-2.3,2.1-6.1,3.1-11.6,3.1c-2.2,0-4.5-0.1-6.7-0.4L91.3,28.8z M95.7,42.6h3.9
	c4.6,0,7.3-2.4,7.3-5.7c0-4-3-5.5-7.3-5.5c-1.3,0-2.6,0.1-3.8,0.3L95.7,42.6L95.7,42.6z M95.7,58.8c1.2,0.2,2.4,0.2,3.6,0.2
	c4.5,0,8.6-1.7,8.6-6.6c0-4.6-3.9-6.5-8.7-6.5h-3.6L95.7,58.8L95.7,58.8z"/>
<path class="st0" d="M122.6,28.3v20c0,7.6,3.3,10.8,7.8,10.8c5,0,8.1-3.3,8.1-10.8v-20h4.4V48c0,10.4-5.4,14.7-12.7,14.7
	c-6.9,0-12-4-12-14.5V28.3H122.6z"/>
<path class="st0" d="M173.8,61c-2.8,1.2-5.8,1.7-8.8,1.6c-9.4,0-16.6-6-16.6-17.1c0-10.6,7.1-17.8,17.5-17.8
	c2.7-0.1,5.5,0.4,7.9,1.5l-1,3.6c-2.1-1-4.4-1.4-6.8-1.4c-7.9,0-13.1,5.1-13.1,13.9c0,8.3,4.7,13.6,12.9,13.6c2.4,0,4.8-0.5,7.1-1.5
	L173.8,61z"/>
<path class="st0" d="M241.8,56.8c2.3,1.4,5,2.2,7.8,2.2c4.4,0,7-2.4,7-5.8c0-3.2-1.8-5-6.3-6.7c-5.5-2-8.8-4.8-8.8-9.6
	c0-5.3,4.3-9.2,10.8-9.2c2.6-0.1,5.1,0.5,7.4,1.7l-1.2,3.6c-2-1.1-4.1-1.6-6.4-1.6c-4.6,0-6.3,2.8-6.3,5.1c0,3.2,2,4.7,6.7,6.5
	c5.7,2.2,8.5,5,8.5,9.9c0,5.2-3.8,9.7-11.7,9.7c-3,0-5.9-0.7-8.6-2.1L241.8,56.8z"/>
<path class="st0" d="M273.3,32h-10.2v-3.7h24.8V32h-10.2v30.1h-4.4L273.3,32L273.3,32z"/>
<path class="st0" d="M295.9,28.3v20c0,7.6,3.3,10.8,7.8,10.8c5,0,8.1-3.3,8.1-10.8v-20h4.4V48c0,10.4-5.4,14.7-12.7,14.7
	c-6.9,0-12-4-12-14.5V28.3H295.9z"/>
<path class="st0" d="M323.8,28.8c3-0.5,6.1-0.7,9.2-0.7c6.2,0,10.6,1.4,13.6,4.2s4.7,6.7,4.7,12.1s-1.7,10-4.8,13.1
	s-8.3,4.9-14.8,4.9c-2.6,0-5.2-0.1-7.9-0.4L323.8,28.8L323.8,28.8z M328.1,58.6c1.4,0.2,2.9,0.3,4.4,0.3c9.2,0,14.3-5.2,14.3-14.3
	c0-8-4.4-13-13.6-13c-1.7,0-3.4,0.1-5.1,0.5L328.1,58.6L328.1,58.6z"/>
<path class="st0" d="M361.2,28.3v33.8h-4.3V28.3H361.2z"/>
<path class="st1" d="M219.1,50.9c-1.6,0.8-3.6,2.6-5.2,3.4c4.2-0.5,8.4-0.1,11.4,2.3c4,3.3,2.7,8.4-2.6,10.2
	c-2.8,0.9-5.7,1.5-8.6,1.9c-4.1,0.6-8.3,0.9-12.4,1.5c-3.1,0.4-4.7-0.6-6.8-1.2c-6.8-1.9-14-2.6-21.1-2.1c-2.6,0.2-5.1,0.8-7.5,1.7
	c-3.1,1.2-3.8,2.5-2,3.8s5.1,1.7,8.3,1.9c7.6,0.4,15.2,0.2,22.8-0.7c2-0.2,3.3,0,3.9,0.9c1.4,1.8,2.1,3.7,0.9,6.1
	c-1.1,2.4-1.6,5.1-2.3,7.6c-0.1,0.4,0.1,0.7,0.8,0.7c0.4,0,0.8-0.3,0.8-0.7c0.7-2.6,3.2-5.2,3.4-7.8c0.7,3.1-0.1,6.6,2.5,9.2
	c1.2-2.4,1.3-5.3,0.2-7.8s-1.5-5.1-3.2-7.4c-0.6-0.8,0-1.2,1.7-1.3c6.2-0.4,12.3-1.4,18.3-3c0.3-0.1,5.6-1.8,7.4-4.4
	c1.2-1.7,2.4-6.5-2.7-11C225.5,53.3,219.2,51.2,219.1,50.9z M193.4,70.9c-0.4,0-0.9,0.1-1.4,0.2c-6.2,0.5-12.3,0.5-18.3,0.5
	c-1.4,0-2.8-0.1-4.1-0.4c-0.8-0.2-2-0.3-1.6-1s1.7-1,2.7-1.2c0.3-0.1,0.5-0.1,0.8-0.1c8.1-1,14.9,0,21.5,1.3
	C193.3,70.3,193.6,70.5,193.4,70.9z"/>
<path class="st1" d="M385.2,25.9c-10.8,0-19.6,8.8-19.6,19.6s8.8,19.6,19.6,19.6c10.8,0,19.6-8.8,19.6-19.6l0,0
	C404.7,34.7,396,25.9,385.2,25.9z M374.7,60.3c7.1,4.2,14.2,4,21.3-0.2C389.8,65,381,65.1,374.7,60.3z M392.3,55.5
	c-4.2,3.5-10.2,3.5-14.3,0C382.3,58.5,388,58.5,392.3,55.5z M379,54.4c3.7,2.6,8.6,2.6,12.3,0C388.3,57.4,382.2,57.4,379,54.4z
	 M393.8,56.2c-4.6,4.2-12.3,4.4-16.7,0.3C382.8,60.1,388.3,59.8,393.8,56.2L393.8,56.2z M385.1,54.1c-4.8,0-8.6-3.9-8.6-8.7
	s3.9-8.6,8.7-8.6c4.8,0,8.6,3.9,8.6,8.7C393.8,50.3,389.9,54.1,385.1,54.1L385.1,54.1z M377.5,36.1c4.3-3.8,10.7-3.9,15-0.2
	C387.5,32.7,382.5,32.8,377.5,36.1L377.5,36.1z M391,36.6c-3.5-2.3-8.1-2.3-11.6,0C382.4,33.9,387.7,33.9,391,36.6z M376.5,35.1
	c4.8-4.4,12.1-4.5,17-0.3C387.7,31.1,382.1,31.3,376.5,35.1z M394.9,57.3c-5.4,4.7-13.3,4.8-18.9,0.3
	C382.4,61.6,388.6,61.4,394.9,57.3z M375.3,34.1c3.7-4.9,15-5,19.5-0.2C388.3,29.6,381.9,29.7,375.3,34.1z M395.1,58.8
	c-5.7,4.8-14.1,4.8-19.8,0C381.9,63,388.5,63,395.1,58.8z M375.1,32.6c5.8-5,14.4-5,20.2,0C388.6,28.2,381.8,28.2,375.1,32.6
	L375.1,32.6z M385.2,27.9c-4,0-7.5,1.5-11,3.3c6.4-5,15.5-5,21.9,0C392.7,29.4,389.2,27.9,385.2,27.9L385.2,27.9z"/>
<line class="st2" x1="202.3" y1="61.5" x2="202.3" y2="44.3"/>
<path class="st1" d="M201.5,61.5V44.3c0.1-0.5,0.5-0.8,0.9-0.8s0.7,0.4,0.8,0.8v17.2c-0.1,0.5-0.5,0.8-0.9,0.8
	C201.8,62.2,201.5,61.9,201.5,61.5z"/>
<line class="st2" x1="199.6" y1="57.2" x2="199.6" y2="48.6"/>
<path class="st1" d="M198.8,57.2v-8.5c0-0.5,0.4-0.8,0.8-0.8s0.8,0.4,0.8,0.8l0,0v8.5c0,0.5-0.4,0.8-0.8,0.8
	C199.1,58,198.8,57.6,198.8,57.2z"/>
<line class="st2" x1="205.2" y1="57.2" x2="205.2" y2="48.6"/>
<path class="st1" d="M204.4,57.2v-8.5c0-0.5,0.4-0.8,0.8-0.8c0.5,0,0.8,0.4,0.8,0.8v8.5c0,0.5-0.4,0.8-0.8,0.8
	C204.8,58,204.4,57.6,204.4,57.2z"/>
<line class="st2" x1="194.1" y1="61.5" x2="194.1" y2="44.3"/>
<path class="st1" d="M193.3,61.5V44.3c0.1-0.5,0.5-0.8,0.9-0.8s0.7,0.4,0.8,0.8v17.2c-0.1,0.5-0.5,0.8-0.9,0.8
	C193.6,62.2,193.3,61.9,193.3,61.5z"/>
<line class="st2" x1="191.4" y1="57.2" x2="191.4" y2="48.6"/>
<path class="st1" d="M190.5,57.2v-8.5c0-0.5,0.4-0.8,0.8-0.8s0.8,0.4,0.8,0.8l0,0v8.5c0,0.5-0.4,0.8-0.8,0.8S190.5,57.6,190.5,57.2z
	"/>
<line class="st2" x1="197" y1="57.2" x2="197" y2="48.6"/>
<path class="st1" d="M196.1,57.2v-8.5c0-0.5,0.4-0.8,0.8-0.8c0.5,0,0.8,0.4,0.8,0.8v8.5c0,0.5-0.4,0.8-0.8,0.8
	S196.2,57.6,196.1,57.2z"/>
<path class="st1" d="M212.8,40.2c1.1,0.4,2.2,0.7,3.4,1.1v-0.1c-0.1-0.4-0.1-0.8-0.2-1.2c-0.6-4.3-2.6-8.3-5.6-11.4
	c-6.6-6.7-17.4-6.8-24.1-0.2c-0.5,0.5-1,1-1.4,1.5c-2.6,3.3-4.1,7.2-4.5,11.4c1-0.3,2-0.7,3-1c0.6-0.1,1.1-0.5,1.2-1.1
	c3.2-11.4,15.7-12.4,22.1-7.9c2.7,1.9,4.7,4.7,5.5,7.9C212.2,39.7,212.5,40,212.8,40.2z"/>
<path class="st1" d="M177.9,48.4c-2.1,3.4-1.9,7.8,0.6,11c2.1,3,5.3,3.9,8.9,4V43.5C183.4,43.6,179.9,44.8,177.9,48.4z"/>
<path class="st1" d="M209.2,43.5v19.9c6.3,0.2,10.9-4.2,10.8-10.1c-0.1-5.5-4.5-9.9-10-9.8C209.8,43.5,209.5,43.5,209.2,43.5z"/>
</svg>
